<svg width="383" height="78" viewBox="0 0 383 78" fill="none" xmlns="http://www.w3.org/2000/svg">
<path d="M52.3262 19.084C52.3262 21.4473 51.877 23.5664 50.9785 25.4414C50.0801 27.2969 48.8105 28.8789 47.1699 30.1875C45.5293 31.4766 43.5664 32.4727 41.2812 33.1758C38.9961 33.8594 36.4766 34.2012 33.7227 34.2012C33.3906 34.2012 33.0977 34.1133 32.8438 33.9375C32.6094 33.7422 32.4922 33.459 32.4922 33.0879C32.4922 32.7949 32.5996 32.541 32.8145 32.3262C33.0293 32.1113 33.293 32.0039 33.6055 32.0039C36.0664 32.0039 38.3125 31.7207 40.3438 31.1543C42.375 30.5879 44.1133 29.7578 45.5586 28.6641C47.0039 27.5508 48.127 26.1934 48.9277 24.5918C49.7285 22.9902 50.1289 21.1543 50.1289 19.084C50.1289 16.9746 49.6602 15.0996 48.7227 13.459C47.8047 11.8184 46.5059 10.4316 44.8262 9.29883C43.166 8.16602 41.1738 7.30664 38.8496 6.7207C36.5449 6.13477 34.0059 5.8418 31.2324 5.8418C28.6152 5.8418 26.0762 6.05664 23.6152 6.48633C21.1738 6.91602 18.8789 7.52148 16.7305 8.30273C14.582 9.08398 12.6191 10.0215 10.8418 11.1152C9.08398 12.209 7.57031 13.4102 6.30078 14.7188C5.05078 16.0273 4.07422 17.4336 3.37109 18.9375C2.66797 20.4219 2.31641 21.9648 2.31641 23.5664C2.31641 24.9727 2.56055 26.2031 3.04883 27.2578C3.53711 28.3125 4.18164 29.2012 4.98242 29.9238C5.80273 30.627 6.74023 31.1543 7.79492 31.5059C8.84961 31.8574 9.95312 32.0332 11.1055 32.0332C12.4727 32.0332 13.6836 31.8867 14.7383 31.5938C15.8125 31.3008 16.7109 30.9785 17.4336 30.627C18.1758 30.2754 18.7422 29.9531 19.1328 29.6602C19.5234 29.3477 19.7383 29.1719 19.7773 29.1328C19.9922 28.918 20.2461 28.8105 20.5391 28.8105C20.832 28.8105 21.0859 28.9277 21.3008 29.1621C21.5352 29.377 21.6523 29.6309 21.6523 29.9238C21.6523 30.2559 21.5352 30.5195 21.3008 30.7148C21.2617 30.7539 21.0078 30.959 20.5391 31.3301C20.0898 31.7012 19.4258 32.1113 18.5469 32.5605C17.6875 32.9902 16.6328 33.3809 15.3828 33.7324C14.1328 34.084 12.707 34.2598 11.1055 34.2598C9.64062 34.2598 8.23438 34.0156 6.88672 33.5273C5.55859 33.0391 4.38672 32.3359 3.37109 31.418C2.375 30.4805 1.57422 29.3574 0.96875 28.0488C0.382812 26.7207 0.0898438 25.2266 0.0898438 23.5664C0.0898438 21.75 0.460938 20.002 1.20312 18.3223C1.96484 16.623 3.01953 15.041 4.36719 13.5762C5.73438 12.0918 7.36523 10.7441 9.25977 9.5332C11.1543 8.30273 13.2539 7.25781 15.5586 6.39844C17.8633 5.51953 20.334 4.8457 22.9707 4.37695C25.6074 3.88867 28.3418 3.64453 31.1738 3.64453C34.2793 3.64453 37.1309 3.99609 39.7285 4.69922C42.3262 5.40234 44.5527 6.41797 46.4082 7.74609C48.2832 9.07422 49.7383 10.6953 50.7734 12.6094C51.8086 14.5039 52.3262 16.6621 52.3262 19.084ZM34.9238 12.1113C35.2168 12.1113 35.4707 12.2188 35.6855 12.4336C35.9199 12.6289 36.0371 12.8926 36.0371 13.2246C36.0371 13.4199 35.9785 13.5957 35.8613 13.752C35.7637 13.9082 35.6367 14.0547 35.4805 14.1914C34.3867 15.0508 33.5078 15.9785 32.8438 16.9746C32.1992 17.9707 31.7012 19.0449 31.3496 20.1973C31.0176 21.3301 30.793 22.541 30.6758 23.8301C30.5781 25.1191 30.5293 26.4668 30.5293 27.873V31.5645C30.5293 33.9863 30.3145 36.291 29.8848 38.4785C29.4551 40.6465 28.7227 42.5508 27.6875 44.1914C26.6719 45.832 25.3047 47.1309 23.5859 48.0879C21.8672 49.0645 19.709 49.5527 17.1113 49.5527C15.9395 49.5527 14.7871 49.4062 13.6543 49.1133C12.541 48.8398 11.4863 48.4395 10.4902 47.9121C9.49414 47.3652 8.57617 46.7012 7.73633 45.9199C6.89648 45.1387 6.17383 44.2598 5.56836 43.2832C5.5293 43.2051 5.49023 43.1172 5.45117 43.0195C5.41211 42.9023 5.39258 42.7949 5.39258 42.6973C5.39258 42.4238 5.49023 42.1797 5.68555 41.9648C5.90039 41.7305 6.17383 41.6133 6.50586 41.6133C6.70117 41.6133 6.87695 41.6719 7.0332 41.7891C7.20898 41.8867 7.35547 42.0137 7.47266 42.1699C8.72266 43.9082 10.1387 45.2168 11.7207 46.0957C13.3027 46.9551 15.0996 47.3848 17.1113 47.3848C19.416 47.3848 21.291 46.9648 22.7363 46.125C24.2012 45.2656 25.3438 44.1035 26.1641 42.6387C27.0039 41.1543 27.5703 39.4258 27.8633 37.4531C28.1758 35.4805 28.332 33.3809 28.332 31.1543V27.4336C28.332 26.125 28.3906 24.7773 28.5078 23.3906C28.625 21.9844 28.8887 20.6172 29.2988 19.2891C29.7285 17.9414 30.334 16.6719 31.1152 15.4805C31.916 14.2695 32.9902 13.2051 34.3379 12.2871C34.416 12.248 34.5137 12.209 34.6309 12.1699C34.748 12.1309 34.8457 12.1113 34.9238 12.1113ZM71.0176 39.8848C70.8027 40.334 70.5293 40.8711 70.1973 41.4961C69.8848 42.1016 69.5234 42.7363 69.1133 43.4004C68.7031 44.0645 68.2441 44.7285 67.7363 45.3926C67.2285 46.0371 66.6719 46.623 66.0664 47.1504C65.4805 47.6582 64.8457 48.0684 64.1621 48.3809C63.498 48.7129 62.7852 48.8789 62.0234 48.8789C60.8516 48.8789 59.8457 48.5176 59.0059 47.7949C58.166 47.0723 57.4531 46.125 56.8672 44.9531C56.2812 43.7812 55.8027 42.4531 55.4316 40.9688C55.0801 39.4648 54.8066 37.9414 54.6113 36.3984C54.416 34.8359 54.2793 33.3223 54.2012 31.8574C54.1426 30.3926 54.1133 29.0938 54.1133 27.9609C54.1133 26.3203 54.1621 24.6211 54.2598 22.8633C54.377 21.1055 54.5527 19.3867 54.7871 17.707C55.0215 16.0273 55.3145 14.4355 55.666 12.9316C56.0371 11.4277 56.4668 10.1094 56.9551 8.97656C57.4629 7.84375 58.0391 6.94531 58.6836 6.28125C59.3281 5.61719 60.0605 5.28516 60.8809 5.28516C61.5254 5.28516 62.1016 5.44141 62.6094 5.75391C63.1367 6.04688 63.5762 6.53516 63.9277 7.21875C64.2793 7.90234 64.5527 8.79102 64.748 9.88477C64.9434 10.9785 65.041 12.3164 65.041 13.8984C65.041 15.8516 64.8359 17.873 64.4258 19.9629C64.0156 22.0332 63.459 24.123 62.7559 26.2324C62.0527 28.3418 61.2227 30.4512 60.2656 32.5605C59.3086 34.6504 58.2832 36.6914 57.1895 38.6836C57.6777 41.1641 58.332 43.1172 59.1523 44.543C59.9727 45.9492 60.959 46.6523 62.1113 46.6523C62.8926 46.6523 63.6445 46.3496 64.3672 45.7441C65.0898 45.1191 65.7539 44.3867 66.3594 43.5469C66.9648 42.707 67.4922 41.8574 67.9414 40.998C68.4102 40.1191 68.7715 39.416 69.0254 38.8887C69.123 38.6934 69.2598 38.5469 69.4355 38.4492C69.6113 38.332 69.8066 38.2734 70.0215 38.2734C70.3535 38.2734 70.6172 38.3906 70.8125 38.625C71.0273 38.8594 71.1348 39.123 71.1348 39.416C71.1348 39.5332 71.0957 39.6895 71.0176 39.8848ZM56.3398 28.1074C56.3398 29.3574 56.3691 30.5586 56.4277 31.7109C56.4863 32.8633 56.5645 33.9668 56.6621 35.0215C57.4824 33.4395 58.2637 31.7598 59.0059 29.9824C59.748 28.1855 60.4023 26.3789 60.9688 24.5625C61.5352 22.7266 61.9844 20.9102 62.3164 19.1133C62.668 17.2969 62.8438 15.5684 62.8438 13.9277C62.8438 11.623 62.6582 9.97266 62.2871 8.97656C61.916 7.98047 61.418 7.48242 60.793 7.48242C60.3828 7.48242 59.9824 7.76562 59.5918 8.33203C59.2207 8.89844 58.8691 9.66992 58.5371 10.6465C58.2051 11.623 57.9023 12.7754 57.6289 14.1035C57.3555 15.4316 57.1211 16.8574 56.9258 18.3809C56.75 19.9043 56.6035 21.4961 56.4863 23.1562C56.3887 24.8164 56.3398 26.4668 56.3398 28.1074ZM91.7012 39.8262C91.623 39.9824 91.457 40.3145 91.2031 40.8223C90.9688 41.3105 90.6562 41.877 90.2656 42.5215C89.8945 43.166 89.4551 43.8398 88.9473 44.543C88.4395 45.2461 87.873 45.8906 87.248 46.4766C86.623 47.0625 85.9492 47.5508 85.2266 47.9414C84.5039 48.3125 83.7422 48.498 82.9414 48.498C81.8086 48.498 80.8516 48.1367 80.0703 47.4141C79.3086 46.6914 78.752 45.7832 78.4004 44.6895C77.7363 45.8027 76.9453 46.6914 76.0273 47.3555C75.1094 48 74.1914 48.3223 73.2734 48.3223C72.5508 48.3223 71.8965 48.1953 71.3105 47.9414C70.7246 47.668 70.2266 47.2969 69.8164 46.8281C69.4062 46.3398 69.084 45.7734 68.8496 45.1289C68.6348 44.4844 68.5273 43.7812 68.5273 43.0195C68.5273 41.4961 68.7812 40.1582 69.2891 39.0059C69.8164 37.834 70.4805 36.8574 71.2812 36.0762C72.082 35.2949 72.9609 34.709 73.918 34.3184C74.8945 33.9277 75.832 33.7324 76.7305 33.7324C77.3359 33.7324 77.8926 33.8203 78.4004 33.9961C78.9082 34.1523 79.3379 34.3281 79.6895 34.5234C80.0605 34.7188 80.3438 34.9043 80.5391 35.0801C80.7344 35.2363 80.8418 35.3242 80.8613 35.3438C81.0762 35.5977 81.1836 35.8613 81.1836 36.1348C81.1836 36.4277 81.0762 36.6914 80.8613 36.9258C80.6465 37.1406 80.3926 37.248 80.0996 37.248C79.7871 37.248 79.5234 37.1406 79.3086 36.9258C79.2695 36.8867 79.1816 36.8184 79.0449 36.7207C78.9082 36.6035 78.7227 36.4863 78.4883 36.3691C78.2539 36.252 77.9707 36.1543 77.6387 36.0762C77.3262 35.9785 76.9648 35.9297 76.5547 35.9297C75.9492 35.9297 75.3047 36.0664 74.6211 36.3398C73.9375 36.6133 73.3125 37.043 72.7461 37.6289C72.1797 38.1953 71.7012 38.918 71.3105 39.7969C70.9395 40.6562 70.7539 41.6816 70.7539 42.873C70.7539 43.2441 70.793 43.625 70.8711 44.0156C70.9492 44.3867 71.0859 44.7285 71.2812 45.041C71.4766 45.3535 71.7402 45.6074 72.0723 45.8027C72.4043 45.998 72.8145 46.0957 73.3027 46.0957C73.6543 46.0957 74.0547 45.9785 74.5039 45.7441C74.9727 45.5098 75.4121 45.1484 75.8223 44.6602C76.252 44.1719 76.6328 43.5566 76.9648 42.8145C77.3164 42.0723 77.5605 41.1934 77.6973 40.1777C77.7363 39.9043 77.8633 39.6797 78.0781 39.5039C78.293 39.3086 78.5469 39.2109 78.8398 39.2109C79.1133 39.2109 79.3477 39.3184 79.543 39.5332C79.7578 39.748 79.875 39.9922 79.8945 40.2656C79.9141 40.6367 79.9531 41.1641 80.0117 41.8477C80.0703 42.5117 80.1973 43.1758 80.3926 43.8398C80.6074 44.5039 80.9199 45.0801 81.3301 45.5684C81.7402 46.0566 82.3066 46.3008 83.0293 46.3008C83.498 46.3008 83.957 46.1738 84.4062 45.9199C84.875 45.666 85.3242 45.334 85.7539 44.9238C86.2031 44.4941 86.623 44.0156 87.0137 43.4883C87.4238 42.9414 87.7949 42.3945 88.127 41.8477C88.459 41.3008 88.752 40.7734 89.0059 40.2656C89.2598 39.7578 89.4746 39.3184 89.6504 38.9473C89.748 38.7324 89.8848 38.5664 90.0605 38.4492C90.2559 38.332 90.4609 38.2734 90.6758 38.2734C91.0078 38.2734 91.2715 38.4004 91.4668 38.6543C91.6816 38.8887 91.7891 39.1426 91.7891 39.416C91.7891 39.5527 91.7598 39.6895 91.7012 39.8262ZM96.1836 45.3633C96.4961 44.7188 96.8574 44.0156 97.2676 43.2539C97.6777 42.4727 98.1172 41.6914 98.5859 40.9102C99.0547 40.1094 99.543 39.3184 100.051 38.5371C100.578 37.7559 101.125 37.0137 101.691 36.3105C102.258 35.627 102.824 35.1387 103.391 34.8457C103.977 34.5332 104.523 34.377 105.031 34.377C106.047 34.377 106.799 34.748 107.287 35.4902C107.775 36.2324 108.02 37.1504 108.02 38.2441C108.02 38.498 108 38.8105 107.961 39.1816C107.941 39.5332 107.912 39.9141 107.873 40.3242C107.854 40.7344 107.824 41.1543 107.785 41.584C107.766 41.9941 107.756 42.3848 107.756 42.7559C107.756 43.2246 107.775 43.6738 107.814 44.1035C107.873 44.5332 107.971 44.9141 108.107 45.2461C108.244 45.5586 108.439 45.8125 108.693 46.0078C108.947 46.1836 109.279 46.2715 109.689 46.2715C110.432 46.2715 111.154 45.9883 111.857 45.4219C112.561 44.8359 113.205 44.1523 113.791 43.3711C114.396 42.5703 114.914 41.7598 115.344 40.9395C115.793 40.1191 116.125 39.4551 116.34 38.9473C116.438 38.7324 116.574 38.5664 116.75 38.4492C116.945 38.332 117.15 38.2734 117.365 38.2734C117.697 38.2734 117.961 38.4004 118.156 38.6543C118.371 38.8887 118.479 39.1426 118.479 39.416C118.479 39.5527 118.449 39.6895 118.391 39.8262C118.312 39.9824 118.156 40.3047 117.922 40.793C117.688 41.2812 117.375 41.8477 116.984 42.4922C116.613 43.1172 116.174 43.791 115.666 44.5137C115.158 45.2168 114.592 45.8613 113.967 46.4473C113.361 47.0332 112.697 47.5215 111.975 47.9121C111.271 48.3027 110.529 48.498 109.748 48.498C108.869 48.498 108.156 48.332 107.609 48C107.062 47.6484 106.633 47.1992 106.32 46.6523C106.008 46.0859 105.793 45.4707 105.676 44.8066C105.578 44.123 105.529 43.4395 105.529 42.7559C105.529 42.4629 105.539 42.1309 105.559 41.7598C105.598 41.3887 105.637 40.998 105.676 40.5879C105.734 40.1777 105.773 39.7676 105.793 39.3574C105.832 38.9473 105.852 38.5566 105.852 38.1855C105.852 37.5605 105.754 37.1406 105.559 36.9258C105.363 36.6914 105.188 36.5742 105.031 36.5742C104.719 36.5742 104.357 36.7598 103.947 37.1309C103.557 37.4824 103.137 37.9512 102.688 38.5371C102.258 39.123 101.809 39.7871 101.34 40.5293C100.891 41.252 100.461 41.9746 100.051 42.6973C99.6602 43.4199 99.2891 44.1133 98.9375 44.7773C98.6055 45.4219 98.3418 45.959 98.1465 46.3887C97.7559 47.209 97.3652 47.7559 96.9746 48.0293C96.584 48.3223 96.1836 48.4688 95.7734 48.4688C95.207 48.4688 94.748 48.3027 94.3965 47.9707C94.0645 47.6191 93.8984 47.1309 93.8984 46.5059C93.8984 46.3691 93.918 46.1055 93.957 45.7148C93.9961 45.3047 94.0449 44.8262 94.1035 44.2793C94.1621 43.7129 94.2207 43.1074 94.2793 42.4629C94.3379 41.8184 94.3965 41.1836 94.4551 40.5586C94.5137 39.9141 94.5625 39.3184 94.6016 38.7715C94.6406 38.2246 94.6602 37.7656 94.6602 37.3945C94.6602 36.9062 94.6406 36.4375 94.6016 35.9883C94.5625 35.5391 94.4844 35.2656 94.3672 35.168C94.1914 35.2266 93.8789 35.5977 93.4297 36.2812C92.9805 36.9453 92.4043 38.127 91.7012 39.8262C91.6035 40.041 91.457 40.207 91.2617 40.3242C91.0664 40.4414 90.8613 40.5 90.6465 40.5C90.3145 40.5 90.0508 40.3926 89.8555 40.1777C89.6602 39.9434 89.5625 39.6797 89.5625 39.3867C89.5625 39.25 89.5918 39.1035 89.6504 38.9473C90.5293 36.8574 91.3496 35.3242 92.1113 34.3477C92.8926 33.3516 93.6641 32.8535 94.4258 32.8535C94.875 32.8535 95.2559 32.9707 95.5684 33.2051C95.8809 33.4199 96.125 33.7129 96.3008 34.084C96.4961 34.4551 96.6328 34.8652 96.7109 35.3145C96.8086 35.7637 96.8574 36.2227 96.8574 36.6914C96.8574 37.043 96.8281 37.5898 96.7695 38.332C96.7305 39.0742 96.6719 39.875 96.5938 40.7344C96.5156 41.5742 96.4375 42.4141 96.3594 43.2539C96.3008 44.0938 96.2422 44.7969 96.1836 45.3633ZM140.129 18.6738C140.129 18.9863 140.021 19.2402 139.807 19.4355C139.592 19.6113 139.328 19.6992 139.016 19.6992H124.162V20.0215C124.162 21.2129 124.074 22.4824 123.898 23.8301C123.723 25.1777 123.479 26.5254 123.166 27.873C122.873 29.2012 122.531 30.5 122.141 31.7695C121.77 33.0391 121.379 34.2109 120.969 35.2852C120.578 36.3594 120.188 37.2969 119.797 38.0977C119.406 38.8789 119.055 39.4648 118.742 39.8555C118.996 40.7539 119.299 41.5938 119.65 42.375C120.002 43.1367 120.393 43.8105 120.822 44.3965C121.271 44.9629 121.75 45.4121 122.258 45.7441C122.766 46.0762 123.312 46.2422 123.898 46.2422C124.582 46.2422 125.256 45.959 125.92 45.3926C126.604 44.8066 127.229 44.123 127.795 43.3418C128.381 42.541 128.889 41.7402 129.318 40.9395C129.768 40.1191 130.09 39.4648 130.285 38.9766C130.48 38.5078 130.822 38.2734 131.311 38.2734C131.643 38.2734 131.906 38.3906 132.102 38.625C132.316 38.8594 132.424 39.1133 132.424 39.3867C132.424 39.5234 132.395 39.6602 132.336 39.7969C132.277 39.9336 132.131 40.2461 131.896 40.7344C131.682 41.2227 131.389 41.7891 131.018 42.4336C130.666 43.0781 130.246 43.7617 129.758 44.4844C129.289 45.1875 128.752 45.832 128.146 46.418C127.561 47.0039 126.926 47.4922 126.242 47.8828C125.559 48.2734 124.836 48.4688 124.074 48.4688C122.727 48.4688 121.516 48.0293 120.441 47.1504C119.367 46.2715 118.449 45.041 117.688 43.459C116.945 41.877 116.379 40.002 115.988 37.834C115.598 35.666 115.402 33.293 115.402 30.7148C115.402 30.0703 115.412 29.3184 115.432 28.459C115.451 27.5801 115.49 26.6621 115.549 25.7051C115.607 24.7285 115.695 23.7324 115.812 22.7168C115.93 21.6816 116.086 20.6758 116.281 19.6992H105.764C105.451 19.6992 105.188 19.6113 104.973 19.4355C104.758 19.2402 104.65 18.9863 104.65 18.6738C104.65 18.3613 104.758 18.1172 104.973 17.9414C105.188 17.7461 105.451 17.6484 105.764 17.6484H116.779C116.975 16.9453 117.199 16.3008 117.453 15.7148C117.727 15.1289 118.029 14.6211 118.361 14.1914C118.713 13.7617 119.094 13.4297 119.504 13.1953C119.934 12.9414 120.402 12.8145 120.91 12.8145C121.398 12.8145 121.818 12.9414 122.17 13.1953C122.541 13.4297 122.854 13.7617 123.107 14.1914C123.361 14.6211 123.557 15.1289 123.693 15.7148C123.85 16.3008 123.967 16.9453 124.045 17.6484H139.016C139.328 17.6484 139.592 17.7461 139.807 17.9414C140.021 18.1172 140.129 18.3613 140.129 18.6738ZM118.068 36.9258C118.654 35.6367 119.182 34.25 119.65 32.7656C120.139 31.2617 120.549 29.748 120.881 28.2246C121.232 26.7012 121.496 25.207 121.672 23.7422C121.867 22.2773 121.965 20.9297 121.965 19.6992H118.508C118.234 20.9102 118.01 22.4141 117.834 24.2109C117.678 25.9883 117.6 28.1562 117.6 30.7148C117.6 32.1406 117.639 33.3418 117.717 34.3184C117.795 35.2754 117.912 36.1445 118.068 36.9258ZM120.793 15.0117C120.617 15.0117 120.363 15.207 120.031 15.5977C119.699 15.9688 119.367 16.6523 119.035 17.6484H121.848C121.75 16.8281 121.604 16.1836 121.408 15.7148C121.232 15.2461 121.027 15.0117 120.793 15.0117ZM118.537 39.0352V39.0645V39.0352ZM189.23 49.3477C189.016 49.7383 188.693 49.9336 188.264 49.9336C187.912 49.9336 187.639 49.8164 187.443 49.582C187.248 49.3672 187.15 49.1035 187.15 48.791C187.15 48.752 187.16 48.3516 187.18 47.5898C187.199 46.8086 187.209 45.7637 187.209 44.4551C187.209 42.7949 187.209 41.0273 187.209 39.1523C187.229 37.2773 187.209 35.373 187.15 33.4395C187.092 31.5059 186.965 29.582 186.77 27.668C186.574 25.7539 186.271 23.9277 185.861 22.1895C185.451 20.4316 184.914 18.8008 184.25 17.2969C183.586 15.793 182.736 14.4941 181.701 13.4004C180.666 12.2871 179.436 11.418 178.01 10.793C176.584 10.168 174.904 9.85547 172.971 9.85547C171.076 9.85547 169.348 10.1875 167.785 10.8516C166.223 11.4961 164.875 12.375 163.742 13.4883C162.629 14.582 161.76 15.8711 161.135 17.3555C160.529 18.8203 160.227 20.373 160.227 22.0137C160.227 23.4395 160.471 24.7578 160.959 25.9688C161.467 27.1602 162.15 28.1953 163.01 29.0742C163.869 29.9531 164.865 30.6465 165.998 31.1543C167.15 31.6426 168.371 31.8867 169.66 31.8867C170.617 31.8867 171.496 31.7598 172.297 31.5059C173.098 31.2324 173.781 30.9395 174.348 30.627C174.914 30.3145 175.354 30.0312 175.666 29.7773C175.979 29.5039 176.145 29.3672 176.164 29.3672C176.379 29.1523 176.643 29.0449 176.955 29.0449C177.248 29.0449 177.502 29.1523 177.717 29.3672C177.932 29.5625 178.039 29.8066 178.039 30.0996C178.039 30.3926 177.932 30.6465 177.717 30.8613C177.678 30.9004 177.453 31.0957 177.043 31.4473C176.652 31.7793 176.105 32.1406 175.402 32.5312C174.699 32.9219 173.859 33.2734 172.883 33.5859C171.926 33.8984 170.861 34.0547 169.689 34.0547C168.068 34.0547 166.545 33.752 165.119 33.1465C163.713 32.541 162.482 31.7012 161.428 30.627C160.373 29.5527 159.533 28.2832 158.908 26.8184C158.303 25.334 158 23.7324 158 22.0137C158 20.0605 158.371 18.2148 159.113 16.4766C159.875 14.7383 160.92 13.2246 162.248 11.9355C163.576 10.627 165.139 9.60156 166.936 8.85938C168.752 8.09766 170.725 7.7168 172.854 7.7168C175.607 7.7168 177.932 8.21484 179.826 9.21094C181.721 10.1875 183.283 11.5059 184.514 13.166C185.764 14.8066 186.721 16.7109 187.385 18.8789C188.068 21.0273 188.566 23.2734 188.879 25.6172C189.191 27.9609 189.377 30.3242 189.436 32.707C189.494 35.0703 189.523 37.2969 189.523 39.3867C189.523 39.7773 189.523 40.1973 189.523 40.6465C189.523 41.0957 189.514 41.5449 189.494 41.9941C189.494 42.4434 189.484 42.873 189.465 43.2832C189.465 43.6738 189.465 43.9961 189.465 44.25L209.094 7.92188C209.27 7.55078 209.582 7.36523 210.031 7.36523C210.363 7.36523 210.627 7.48242 210.822 7.7168C211.037 7.93164 211.145 8.18555 211.145 8.47852C211.145 8.57617 211.086 8.9375 210.969 9.5625C210.852 10.168 210.705 10.9785 210.529 11.9941C210.373 13.0098 210.197 14.1914 210.002 15.5391C209.807 16.8672 209.621 18.3027 209.445 19.8457C209.289 21.3887 209.152 23 209.035 24.6797C208.918 26.3398 208.859 28 208.859 29.6602C208.859 32.4531 209.006 34.9336 209.299 37.1016C209.592 39.25 210.07 41.0664 210.734 42.5508C211.398 44.0352 212.268 45.1582 213.342 45.9199C214.436 46.6816 215.773 47.0625 217.355 47.0625C218.781 47.0625 220.139 46.7598 221.428 46.1543C222.717 45.5293 223.918 44.6797 225.031 43.6055C226.145 42.5312 227.18 41.2715 228.137 39.8262C229.094 38.3809 229.953 36.8281 230.715 35.168C231.496 33.4883 232.18 31.75 232.766 29.9531C233.371 28.1562 233.869 26.3691 234.26 24.5918C234.67 22.8145 234.973 21.0859 235.168 19.4062C235.383 17.7266 235.49 16.1836 235.49 14.7773C235.49 12.2383 235.197 9.9043 234.611 7.77539C234.045 5.62695 233.127 3.87891 231.857 2.53125C231.662 2.33594 231.564 2.0918 231.564 1.79883C231.564 1.48633 231.672 1.22266 231.887 1.00781C232.121 0.792969 232.385 0.685547 232.678 0.685547C233.01 0.685547 233.273 0.792969 233.469 1.00781C234.211 1.80859 234.846 2.7168 235.373 3.73242C235.92 4.72852 236.359 5.82227 236.691 7.01367C237.043 8.18555 237.297 9.42578 237.453 10.7344C237.629 12.043 237.717 13.4004 237.717 14.8066C237.717 16.9551 237.512 19.2988 237.102 21.8379C236.691 24.3574 236.086 26.8965 235.285 29.4551C234.484 31.9941 233.498 34.4551 232.326 36.8379C231.174 39.2207 229.836 41.3301 228.312 43.166C226.809 44.9824 225.139 46.4473 223.303 47.5605C221.467 48.6543 219.484 49.2012 217.355 49.2012C215.344 49.2012 213.654 48.752 212.287 47.8535C210.92 46.9355 209.816 45.627 208.977 43.9277C208.156 42.209 207.561 40.1289 207.189 37.6875C206.838 35.2461 206.662 32.4922 206.662 29.4258C206.662 28.1562 206.701 26.8477 206.779 25.5C206.877 24.1523 206.984 22.834 207.102 21.5449C207.238 20.2559 207.375 19.0156 207.512 17.8242C207.668 16.6328 207.814 15.5586 207.951 14.6016L189.23 49.3477ZM243.518 45.5098C243.83 44.8457 244.191 44.1328 244.602 43.3711C245.012 42.5898 245.451 41.7988 245.92 40.998C246.389 40.1777 246.887 39.3672 247.414 38.5664C247.941 37.7656 248.488 37.0137 249.055 36.3105C249.621 35.627 250.188 35.1387 250.754 34.8457C251.34 34.5332 251.887 34.377 252.395 34.377C252.902 34.377 253.342 34.4844 253.713 34.6992C254.104 34.8945 254.416 35.168 254.65 35.5195C254.904 35.8711 255.09 36.2812 255.207 36.75C255.344 37.2188 255.412 37.7266 255.412 38.2734C255.412 38.7227 255.363 39.3281 255.266 40.0898C255.188 40.832 255.148 41.6133 255.148 42.4336C255.148 42.9023 255.168 43.3711 255.207 43.8398C255.266 44.2891 255.354 44.6992 255.471 45.0703C255.607 45.4219 255.803 45.7148 256.057 45.9492C256.311 46.1641 256.643 46.2715 257.053 46.2715C257.521 46.2715 257.99 46.1445 258.459 45.8906C258.928 45.6172 259.387 45.2656 259.836 44.8359C260.285 44.3867 260.715 43.8984 261.125 43.3711C261.535 42.8242 261.906 42.2871 262.238 41.7598C262.57 41.2129 262.863 40.6953 263.117 40.207C263.371 39.6992 263.576 39.2793 263.732 38.9473C263.928 38.498 264.27 38.2734 264.758 38.2734C265.09 38.2734 265.354 38.3906 265.549 38.625C265.744 38.8594 265.842 39.1133 265.842 39.3867C265.842 39.543 265.812 39.6895 265.754 39.8262C265.676 39.9824 265.52 40.3047 265.285 40.793C265.07 41.2812 264.768 41.8477 264.377 42.4922C264.006 43.1367 263.566 43.8105 263.059 44.5137C262.551 45.2168 261.984 45.8711 261.359 46.4766C260.754 47.0625 260.09 47.5508 259.367 47.9414C258.664 48.3125 257.922 48.498 257.141 48.498C256.242 48.498 255.52 48.3125 254.973 47.9414C254.426 47.5508 253.996 47.0625 253.684 46.4766C253.391 45.8906 253.186 45.2363 253.068 44.5137C252.971 43.791 252.922 43.0879 252.922 42.4043C252.922 42.0527 252.932 41.6816 252.951 41.291C252.99 40.8809 253.029 40.4805 253.068 40.0898C253.107 39.6992 253.137 39.3379 253.156 39.0059C253.195 38.6543 253.215 38.3613 253.215 38.127C253.215 37.5215 253.127 37.1113 252.951 36.8965C252.795 36.6816 252.609 36.5742 252.395 36.5742C252.082 36.5742 251.721 36.7598 251.311 37.1309C250.92 37.4824 250.5 37.9512 250.051 38.5371C249.621 39.123 249.182 39.7871 248.732 40.5293C248.303 41.252 247.883 41.9746 247.473 42.6973C247.062 43.4199 246.691 44.1133 246.359 44.7773C246.027 45.4219 245.754 45.959 245.539 46.3887C245.129 47.209 244.709 47.7559 244.279 48.0293C243.869 48.3223 243.498 48.4688 243.166 48.4688C242.561 48.4688 242.092 48.2344 241.76 47.7656C241.447 47.2773 241.291 46.6914 241.291 46.0078V44.1621C241.291 40.4707 241.291 36.9551 241.291 33.6152C241.311 30.2559 241.359 27.1406 241.438 24.2695C241.535 21.3789 241.682 18.7715 241.877 16.4473C242.092 14.1035 242.404 12.1113 242.814 10.4707C243.225 8.81055 243.742 7.53125 244.367 6.63281C245.012 5.73438 245.812 5.28516 246.77 5.28516C247.59 5.28516 248.283 5.50977 248.85 5.95898C249.416 6.4082 249.875 7.02344 250.227 7.80469C250.578 8.56641 250.832 9.46484 250.988 10.5C251.145 11.5156 251.223 12.5898 251.223 13.7227C251.223 16.0273 251.008 18.293 250.578 20.5195C250.168 22.7266 249.611 24.8848 248.908 26.9941C248.205 29.1035 247.385 31.1641 246.447 33.1758C245.51 35.168 244.523 37.1113 243.488 39.0059C243.488 39.3574 243.488 39.7773 243.488 40.2656C243.488 40.7539 243.488 41.2422 243.488 41.7305C243.488 42.2188 243.488 42.6777 243.488 43.1074C243.488 43.5371 243.488 43.8789 243.488 44.1328L243.518 45.5098ZM243.518 34.6992C244.338 32.9023 245.08 31.1543 245.744 29.4551C246.428 27.7363 247.004 26.0273 247.473 24.3281C247.961 22.6289 248.342 20.9102 248.615 19.1719C248.889 17.4141 249.025 15.5879 249.025 13.6934C249.025 13.3809 249.006 12.8828 248.967 12.1992C248.947 11.5156 248.859 10.8223 248.703 10.1191C248.566 9.41602 248.342 8.80078 248.029 8.27344C247.736 7.74609 247.316 7.48242 246.77 7.48242C246.34 7.48242 245.969 7.77539 245.656 8.36133C245.344 8.92773 245.07 9.70898 244.836 10.7051C244.602 11.6816 244.406 12.8242 244.25 14.1328C244.094 15.4414 243.967 16.8281 243.869 18.293C243.771 19.7578 243.693 21.2617 243.635 22.8047C243.596 24.3477 243.566 25.8516 243.547 27.3164C243.527 28.7617 243.518 30.1191 243.518 31.3887C243.518 32.6582 243.518 33.7617 243.518 34.6992ZM268.537 25.002C268.537 25.7441 268.273 26.3789 267.746 26.9062C267.238 27.4141 266.613 27.668 265.871 27.668C265.129 27.668 264.494 27.4141 263.967 26.9062C263.459 26.3789 263.205 25.7441 263.205 25.002C263.205 24.6309 263.273 24.2891 263.41 23.9766C263.547 23.6445 263.732 23.3613 263.967 23.127C264.221 22.873 264.504 22.6777 264.816 22.541C265.148 22.4043 265.5 22.3359 265.871 22.3359C266.242 22.3359 266.584 22.4043 266.896 22.541C267.229 22.6777 267.512 22.873 267.746 23.127C268 23.3613 268.195 23.6445 268.332 23.9766C268.469 24.2891 268.537 24.6309 268.537 25.002ZM263.791 42.1699C263.791 39.3574 263.967 36.5547 264.318 33.7617C264.357 33.4883 264.475 33.2539 264.67 33.0586C264.885 32.8438 265.158 32.7363 265.49 32.7363C265.783 32.7363 266.027 32.8535 266.223 33.0879C266.418 33.3027 266.516 33.5566 266.516 33.8496C266.516 33.9668 266.486 34.3184 266.428 34.9043C266.389 35.4902 266.33 36.1934 266.252 37.0137C266.193 37.8145 266.135 38.6738 266.076 39.5918C266.037 40.4902 266.018 41.3203 266.018 42.082C266.018 43.1172 266.115 43.957 266.311 44.6016C266.525 45.2266 266.789 45.7148 267.102 46.0664C267.434 46.418 267.775 46.6523 268.127 46.7695C268.498 46.8867 268.85 46.9453 269.182 46.9453C269.729 46.9453 270.295 46.75 270.881 46.3594C271.467 45.9688 272.062 45.4219 272.668 44.7188C273.293 44.0156 273.918 43.1758 274.543 42.1992C275.168 41.2031 275.783 40.0996 276.389 38.8887C276.486 38.6934 276.623 38.5469 276.799 38.4492C276.975 38.332 277.17 38.2734 277.385 38.2734C277.697 38.2734 277.951 38.3906 278.146 38.625C278.361 38.8594 278.469 39.1133 278.469 39.3867C278.469 39.582 278.43 39.748 278.352 39.8848C278.117 40.334 277.824 40.8809 277.473 41.5254C277.121 42.1699 276.721 42.834 276.271 43.5176C275.822 44.2012 275.324 44.8848 274.777 45.5684C274.25 46.2324 273.684 46.8379 273.078 47.3848C272.473 47.9121 271.838 48.3418 271.174 48.6738C270.51 49.0059 269.836 49.1719 269.152 49.1719C268.273 49.1719 267.502 48.9863 266.838 48.6152C266.174 48.2441 265.607 47.7461 265.139 47.1211C264.689 46.4961 264.348 45.7637 264.113 44.9238C263.898 44.0645 263.791 43.1465 263.791 42.1699ZM266.896 25.002C266.896 24.7285 266.789 24.4941 266.574 24.2988C266.379 24.084 266.145 23.9766 265.871 23.9766C265.598 23.9766 265.363 24.084 265.168 24.2988C264.973 24.4941 264.875 24.7285 264.875 25.002C264.875 25.2754 264.973 25.5098 265.168 25.7051C265.363 25.9004 265.598 25.998 265.871 25.998C266.145 25.998 266.379 25.9004 266.574 25.7051C266.789 25.5098 266.896 25.2754 266.896 25.002ZM279.611 37.1602C279.494 37.4727 279.348 37.8242 279.172 38.2148C279.016 38.6055 278.83 39.0156 278.615 39.4453C278.439 39.7773 278.254 40.041 278.059 40.2363C277.883 40.4121 277.648 40.5 277.355 40.5C277.023 40.5 276.76 40.4023 276.564 40.207C276.369 39.9922 276.271 39.748 276.271 39.4746C276.271 39.377 276.281 39.2988 276.301 39.2402C276.32 39.1621 276.369 39.0449 276.447 38.8887C276.955 37.9121 277.326 37.0625 277.561 36.3398C277.814 35.5977 278.02 34.8262 278.176 34.0254C278.039 33.5762 277.941 33.1953 277.883 32.8828C277.824 32.5703 277.795 32.248 277.795 31.916C277.795 31.2715 277.932 30.7539 278.205 30.3633C278.479 29.9531 278.859 29.748 279.348 29.748C279.797 29.748 280.148 29.9434 280.402 30.334C280.676 30.7246 280.812 31.2031 280.812 31.7695C280.812 32.082 280.783 32.3945 280.725 32.707C280.666 33.0195 280.588 33.4102 280.49 33.8789C280.939 34.9922 281.389 35.9785 281.838 36.8379C282.287 37.6973 282.688 38.4883 283.039 39.2109C283.391 39.9141 283.674 40.5781 283.889 41.2031C284.123 41.8281 284.24 42.4531 284.24 43.0781C284.24 43.8984 284.074 44.6797 283.742 45.4219C283.41 46.1641 282.863 46.7891 282.102 47.2969C282.199 47.3164 282.297 47.3262 282.395 47.3262C282.492 47.3262 282.59 47.3262 282.688 47.3262C283.801 47.3262 284.826 47.0723 285.764 46.5645C286.701 46.0566 287.541 45.4023 288.283 44.6016C289.045 43.7812 289.719 42.8828 290.305 41.9062C290.891 40.9102 291.398 39.9238 291.828 38.9473C292.023 38.498 292.297 38.2734 292.648 38.2734C292.98 38.2734 293.234 38.3906 293.41 38.625C293.605 38.8594 293.703 39.1133 293.703 39.3867C293.703 39.543 293.674 39.6895 293.615 39.8262C293.4 40.3535 293.117 40.959 292.766 41.6426C292.434 42.3066 292.023 43 291.535 43.7227C291.066 44.4258 290.52 45.1191 289.895 45.8027C289.27 46.4863 288.566 47.1016 287.785 47.6484C287.023 48.1758 286.184 48.5957 285.266 48.9082C284.348 49.2402 283.342 49.4062 282.248 49.4062C280.939 49.4062 279.719 49.1719 278.586 48.7031C277.473 48.2539 276.564 47.502 275.861 46.4473C275.744 46.2715 275.686 46.0859 275.686 45.8906C275.686 45.5977 275.793 45.3438 276.008 45.1289C276.242 44.8945 276.506 44.7773 276.799 44.7773C277.111 44.7773 277.375 44.8848 277.59 45.0996C277.609 45.1387 277.678 45.207 277.795 45.3047C277.912 45.3828 278.049 45.4805 278.205 45.5977C278.381 45.6953 278.576 45.7832 278.791 45.8613C279.025 45.9395 279.26 45.9785 279.494 45.9785C279.963 45.9785 280.354 45.8809 280.666 45.6855C280.998 45.4902 281.262 45.2559 281.457 44.9824C281.652 44.6895 281.789 44.3867 281.867 44.0742C281.965 43.7422 282.014 43.459 282.014 43.2246C282.014 42.7363 281.936 42.248 281.779 41.7598C281.623 41.2715 281.418 40.7832 281.164 40.2949C280.93 39.8066 280.666 39.3086 280.373 38.8008C280.1 38.2734 279.846 37.7266 279.611 37.1602ZM306.623 39.8262C306.623 41.623 306.301 43.1562 305.656 44.4258C305.012 45.6953 304.221 46.6621 303.283 47.3262H303.4C304.553 47.3262 305.598 47.0723 306.535 46.5645C307.492 46.0371 308.352 45.373 309.113 44.5723C309.875 43.752 310.559 42.8438 311.164 41.8477C311.77 40.8516 312.307 39.8848 312.775 38.9473C312.873 38.7324 313.01 38.5664 313.186 38.4492C313.381 38.332 313.586 38.2734 313.801 38.2734C314.133 38.2734 314.396 38.3906 314.592 38.625C314.787 38.8594 314.885 39.1133 314.885 39.3867C314.885 39.543 314.855 39.6895 314.797 39.8262C314.289 40.959 313.684 42.1016 312.98 43.2539C312.277 44.3867 311.457 45.4121 310.52 46.3301C309.582 47.248 308.527 47.9902 307.355 48.5566C306.184 49.1426 304.885 49.4355 303.459 49.4355C302.424 49.4355 301.418 49.2695 300.441 48.9375C299.465 48.625 298.605 48.127 297.863 47.4434C297.59 47.2285 297.355 47.0039 297.16 46.7695C296.965 46.5156 296.809 46.2812 296.691 46.0664C296.652 46.0273 296.633 45.9883 296.633 45.9492C296.516 45.7734 296.457 45.5879 296.457 45.3926C296.457 45.1387 296.545 44.9043 296.721 44.6895C296.74 44.6504 296.76 44.6309 296.779 44.6309C296.799 44.6113 296.818 44.5918 296.838 44.5723C297.033 44.3965 297.248 44.2988 297.482 44.2793H297.57C297.668 44.2793 297.736 44.2891 297.775 44.3086C297.795 44.3086 297.805 44.3184 297.805 44.3379C297.824 44.3379 297.844 44.3379 297.863 44.3379C297.922 44.3379 297.99 44.3574 298.068 44.3965C298.088 44.416 298.107 44.4258 298.127 44.4258C298.303 44.543 298.449 44.6895 298.566 44.8652C298.703 45.0996 298.859 45.3145 299.035 45.5098C299.191 45.666 299.377 45.8125 299.592 45.9492C299.807 46.0664 300.051 46.125 300.324 46.125C300.812 46.125 301.301 45.9785 301.789 45.6855C302.277 45.3926 302.717 44.9727 303.107 44.4258C303.498 43.8789 303.811 43.2148 304.045 42.4336C304.299 41.6523 304.426 40.7832 304.426 39.8262C304.426 39.123 304.348 38.5273 304.191 38.0391C304.055 37.5312 303.869 37.1211 303.635 36.8086C303.42 36.4961 303.186 36.2715 302.932 36.1348C302.678 35.9785 302.434 35.9004 302.199 35.9004C301.672 35.9004 301.135 36.1738 300.588 36.7207C300.061 37.2676 299.533 37.9609 299.006 38.8008C298.479 39.6406 297.951 40.5684 297.424 41.584C296.916 42.5996 296.398 43.5859 295.871 44.543C295.832 47.707 295.773 50.7246 295.695 53.5957C295.637 56.4668 295.52 59.1328 295.344 61.5938C295.188 64.0547 294.963 66.2812 294.67 68.2734C294.377 70.2656 293.977 71.9648 293.469 73.3711C292.961 74.7969 292.336 75.8906 291.594 76.6523C290.852 77.4141 289.943 77.7949 288.869 77.7949C288.537 77.7949 288.156 77.7266 287.727 77.5898C287.297 77.4531 286.896 77.1699 286.525 76.7402C286.154 76.3301 285.842 75.7344 285.588 74.9531C285.334 74.1719 285.207 73.127 285.207 71.8184C285.207 70.1582 285.412 68.2344 285.822 66.0469C286.232 63.8594 286.818 61.5352 287.58 59.0742C288.322 56.6328 289.211 54.123 290.246 51.5449C291.281 48.9668 292.424 46.457 293.674 44.0156C293.674 43.332 293.674 42.6582 293.674 41.9941C293.693 41.3301 293.703 40.6855 293.703 40.0605C293.449 40.3535 293.146 40.5 292.795 40.5C292.463 40.5 292.199 40.3828 292.004 40.1484C291.809 39.9141 291.711 39.6602 291.711 39.3867C291.711 39.25 291.74 39.1035 291.799 38.9473C292.268 37.873 292.629 36.8574 292.883 35.9004C293.137 34.9238 293.322 34.0742 293.439 33.3516C293.576 32.6094 293.654 32.0234 293.674 31.5938C293.693 31.1641 293.703 30.9395 293.703 30.9199C293.703 30.627 293.811 30.373 294.025 30.1582C294.24 29.9434 294.504 29.8359 294.816 29.8359C295.109 29.8359 295.363 29.9434 295.578 30.1582C295.793 30.3535 295.9 30.6074 295.9 30.9199V39.9141C296.35 39.1523 296.799 38.4004 297.248 37.6582C297.697 36.916 298.166 36.252 298.654 35.666C299.162 35.0801 299.699 34.6113 300.266 34.2598C300.852 33.8887 301.496 33.7031 302.199 33.7031C302.863 33.7031 303.469 33.8594 304.016 34.1719C304.562 34.4844 305.031 34.9141 305.422 35.4609C305.812 36.0078 306.105 36.6621 306.301 37.4238C306.516 38.166 306.623 38.9668 306.623 39.8262ZM293.615 49.2305C292.658 51.3789 291.789 53.5371 291.008 55.7051C290.246 57.873 289.602 59.9629 289.074 61.9746C288.527 63.9863 288.107 65.8711 287.814 67.6289C287.521 69.3867 287.375 70.9297 287.375 72.2578C287.375 72.5898 287.395 72.9512 287.434 73.3418C287.473 73.7324 287.551 74.0938 287.668 74.4258C287.785 74.7578 287.951 75.0312 288.166 75.2461C288.381 75.4805 288.664 75.5977 289.016 75.5977C289.66 75.5977 290.217 75.1875 290.686 74.3672C291.154 73.5664 291.545 72.4727 291.857 71.0859C292.189 69.7188 292.463 68.1367 292.678 66.3398C292.893 64.5625 293.059 62.6973 293.176 60.7441C293.312 58.791 293.41 56.8184 293.469 54.8262C293.527 52.8535 293.576 50.9883 293.615 49.2305ZM316.32 44.7773C316.73 45.3438 317.258 45.8027 317.902 46.1543C318.547 46.4863 319.338 46.6523 320.275 46.6523C321.232 46.6523 322.102 46.4277 322.883 45.9785C323.664 45.5098 324.377 44.9043 325.021 44.1621C325.666 43.4199 326.242 42.5898 326.75 41.6719C327.258 40.7539 327.717 39.8359 328.127 38.918C328.225 38.7031 328.361 38.5469 328.537 38.4492C328.713 38.332 328.908 38.2734 329.123 38.2734C329.455 38.2734 329.719 38.3906 329.914 38.625C330.129 38.8594 330.236 39.1133 330.236 39.3867C330.236 39.4844 330.227 39.5723 330.207 39.6504C330.188 39.709 330.158 39.7773 330.119 39.8555C328.771 42.8242 327.297 45.0605 325.695 46.5645C324.113 48.0684 322.316 48.8398 320.305 48.8789C319.016 48.8789 317.902 48.625 316.965 48.1172C316.027 47.6289 315.256 46.9941 314.65 46.2129C314.045 45.4121 313.596 44.5137 313.303 43.5176C313.01 42.5215 312.863 41.5254 312.863 40.5293C312.863 39.5332 312.98 38.6152 313.215 37.7754C313.469 36.9355 313.82 36.2031 314.27 35.5781C314.738 34.9531 315.285 34.4648 315.91 34.1133C316.555 33.7617 317.258 33.5859 318.02 33.5859C318.469 33.5859 318.908 33.6836 319.338 33.8789C319.787 34.0547 320.188 34.3184 320.539 34.6699C320.891 35.002 321.174 35.4121 321.389 35.9004C321.604 36.3887 321.711 36.9453 321.711 37.5703C321.711 38.3711 321.574 39.123 321.301 39.8262C321.027 40.5293 320.646 41.1836 320.158 41.7891C319.689 42.3945 319.123 42.9512 318.459 43.459C317.795 43.9668 317.082 44.4062 316.32 44.7773ZM315.441 42.873C316.047 42.6191 316.594 42.2969 317.082 41.9062C317.59 41.5156 318.02 41.0859 318.371 40.6172C318.723 40.1484 318.996 39.6602 319.191 39.1523C319.387 38.625 319.484 38.0977 319.484 37.5703C319.484 36.9844 319.338 36.5449 319.045 36.252C318.752 35.9395 318.41 35.7832 318.02 35.7832C317.492 35.7832 317.043 35.9297 316.672 36.2227C316.301 36.5156 315.998 36.8965 315.764 37.3652C315.529 37.834 315.354 38.3613 315.236 38.9473C315.139 39.5137 315.09 40.0801 315.09 40.6465C315.09 40.998 315.119 41.3691 315.178 41.7598C315.256 42.1504 315.344 42.5215 315.441 42.873ZM331.232 35.959C331.154 36.4863 331.057 36.9844 330.939 37.4531C330.822 37.9023 330.705 38.3027 330.588 38.6543C330.49 38.9863 330.402 39.2598 330.324 39.4746C330.246 39.6895 330.197 39.8066 330.178 39.8262C329.982 40.2754 329.641 40.5 329.152 40.5C328.879 40.5 328.625 40.4023 328.391 40.207C328.156 39.9922 328.039 39.7285 328.039 39.416C328.039 39.2988 328.059 39.2109 328.098 39.1523C328.137 39.0938 328.195 38.9766 328.273 38.8008C328.352 38.625 328.449 38.332 328.566 37.9219C328.684 37.5117 328.83 36.877 329.006 36.0176C328.674 36.0176 328.332 36.0078 327.98 35.9883C327.629 35.9688 327.307 35.9004 327.014 35.7832C326.701 35.666 326.447 35.4805 326.252 35.2266C326.057 34.9727 325.959 34.6211 325.959 34.1719C325.959 33.8398 326.057 33.3906 326.252 32.8242C326.428 32.2578 326.672 31.7012 326.984 31.1543C327.297 30.6074 327.648 30.1387 328.039 29.748C328.43 29.3379 328.82 29.1328 329.211 29.1328C329.66 29.1328 330.021 29.2988 330.295 29.6309C330.588 29.9629 330.812 30.373 330.969 30.8613C331.125 31.3301 331.232 31.8281 331.291 32.3555C331.369 32.8828 331.408 33.3418 331.408 33.7324C331.74 33.7324 332.062 33.7324 332.375 33.7324C332.707 33.7129 333.02 33.7031 333.312 33.7031C334.426 33.7031 335.275 33.9473 335.861 34.4355C336.447 34.9238 336.74 35.7246 336.74 36.8379C336.74 37.2871 336.711 37.7559 336.652 38.2441C336.594 38.7324 336.525 39.2402 336.447 39.7676C336.369 40.2754 336.301 40.7832 336.242 41.291C336.184 41.7988 336.154 42.2969 336.154 42.7852C336.154 43.4883 336.252 44.0742 336.447 44.543C336.643 44.9922 336.887 45.3535 337.18 45.627C337.473 45.9004 337.785 46.0957 338.117 46.2129C338.449 46.3105 338.752 46.3594 339.025 46.3594C339.865 46.3594 340.656 46.0859 341.398 45.5391C342.141 44.9922 342.824 44.3379 343.449 43.5762C344.074 42.7949 344.631 41.9746 345.119 41.1152C345.627 40.2559 346.047 39.5039 346.379 38.8594C346.477 38.6836 346.613 38.5469 346.789 38.4492C346.965 38.3516 347.15 38.3027 347.346 38.3027C347.697 38.3027 347.971 38.4199 348.166 38.6543C348.361 38.8691 348.459 39.1133 348.459 39.3867C348.459 39.582 348.42 39.7578 348.342 39.9141C347.893 40.7148 347.365 41.623 346.76 42.6387C346.174 43.6348 345.5 44.5723 344.738 45.4512C343.977 46.3301 343.117 47.0723 342.16 47.6777C341.223 48.2832 340.188 48.5859 339.055 48.5859C338.352 48.5859 337.688 48.4492 337.062 48.1758C336.438 47.9219 335.891 47.5508 335.422 47.0625C334.973 46.5547 334.611 45.9395 334.338 45.2168C334.064 44.4746 333.928 43.6445 333.928 42.7266C333.928 41.75 334.025 40.7832 334.221 39.8262C334.416 38.8496 334.514 37.9219 334.514 37.043C334.514 36.6719 334.426 36.3984 334.25 36.2227C334.094 36.0273 333.732 35.9297 333.166 35.9297C332.893 35.9297 332.59 35.9297 332.258 35.9297C331.945 35.9297 331.604 35.9395 331.232 35.959ZM329.27 33.791C329.27 33.6543 329.26 33.4785 329.24 33.2637C329.24 33.0293 329.221 32.8047 329.182 32.5898C329.162 32.375 329.123 32.1895 329.064 32.0332C329.025 31.877 328.977 31.7988 328.918 31.7988C328.859 31.7988 328.781 31.877 328.684 32.0332C328.605 32.1699 328.518 32.3457 328.42 32.5605C328.322 32.7559 328.234 32.9707 328.156 33.2051C328.078 33.4395 328.02 33.6348 327.98 33.791H329.27ZM349.895 44.7773C350.305 45.3438 350.832 45.8027 351.477 46.1543C352.121 46.4863 352.912 46.6523 353.85 46.6523C354.807 46.6523 355.676 46.4277 356.457 45.9785C357.238 45.5098 357.951 44.9043 358.596 44.1621C359.24 43.4199 359.816 42.5898 360.324 41.6719C360.832 40.7539 361.291 39.8359 361.701 38.918C361.799 38.7031 361.936 38.5469 362.111 38.4492C362.287 38.332 362.482 38.2734 362.697 38.2734C363.029 38.2734 363.293 38.3906 363.488 38.625C363.703 38.8594 363.811 39.1133 363.811 39.3867C363.811 39.4844 363.801 39.5723 363.781 39.6504C363.762 39.709 363.732 39.7773 363.693 39.8555C362.346 42.8242 360.871 45.0605 359.27 46.5645C357.688 48.0684 355.891 48.8398 353.879 48.8789C352.59 48.8789 351.477 48.625 350.539 48.1172C349.602 47.6289 348.83 46.9941 348.225 46.2129C347.619 45.4121 347.17 44.5137 346.877 43.5176C346.584 42.5215 346.438 41.5254 346.438 40.5293C346.438 39.5332 346.555 38.6152 346.789 37.7754C347.043 36.9355 347.395 36.2031 347.844 35.5781C348.312 34.9531 348.859 34.4648 349.484 34.1133C350.129 33.7617 350.832 33.5859 351.594 33.5859C352.043 33.5859 352.482 33.6836 352.912 33.8789C353.361 34.0547 353.762 34.3184 354.113 34.6699C354.465 35.002 354.748 35.4121 354.963 35.9004C355.178 36.3887 355.285 36.9453 355.285 37.5703C355.285 38.3711 355.148 39.123 354.875 39.8262C354.602 40.5293 354.221 41.1836 353.732 41.7891C353.264 42.3945 352.697 42.9512 352.033 43.459C351.369 43.9668 350.656 44.4062 349.895 44.7773ZM349.016 42.873C349.621 42.6191 350.168 42.2969 350.656 41.9062C351.164 41.5156 351.594 41.0859 351.945 40.6172C352.297 40.1484 352.57 39.6602 352.766 39.1523C352.961 38.625 353.059 38.0977 353.059 37.5703C353.059 36.9844 352.912 36.5449 352.619 36.252C352.326 35.9395 351.984 35.7832 351.594 35.7832C351.066 35.7832 350.617 35.9297 350.246 36.2227C349.875 36.5156 349.572 36.8965 349.338 37.3652C349.104 37.834 348.928 38.3613 348.811 38.9473C348.713 39.5137 348.664 40.0801 348.664 40.6465C348.664 40.998 348.693 41.3691 348.752 41.7598C348.83 42.1504 348.918 42.5215 349.016 42.873ZM364.807 35.959C364.729 36.4863 364.631 36.9844 364.514 37.4531C364.396 37.9023 364.279 38.3027 364.162 38.6543C364.064 38.9863 363.977 39.2598 363.898 39.4746C363.82 39.6895 363.771 39.8066 363.752 39.8262C363.557 40.2754 363.215 40.5 362.727 40.5C362.453 40.5 362.199 40.4023 361.965 40.207C361.73 39.9922 361.613 39.7285 361.613 39.416C361.613 39.2988 361.633 39.2109 361.672 39.1523C361.711 39.0938 361.77 38.9766 361.848 38.8008C361.926 38.625 362.023 38.332 362.141 37.9219C362.258 37.5117 362.404 36.877 362.58 36.0176C362.248 36.0176 361.906 36.0078 361.555 35.9883C361.203 35.9688 360.881 35.9004 360.588 35.7832C360.275 35.666 360.021 35.4805 359.826 35.2266C359.631 34.9727 359.533 34.6211 359.533 34.1719C359.533 33.8398 359.631 33.3906 359.826 32.8242C360.002 32.2578 360.246 31.7012 360.559 31.1543C360.871 30.6074 361.223 30.1387 361.613 29.748C362.004 29.3379 362.395 29.1328 362.785 29.1328C363.234 29.1328 363.596 29.2988 363.869 29.6309C364.162 29.9629 364.387 30.373 364.543 30.8613C364.699 31.3301 364.807 31.8281 364.865 32.3555C364.943 32.8828 364.982 33.3418 364.982 33.7324C365.314 33.7324 365.637 33.7324 365.949 33.7324C366.281 33.7129 366.594 33.7031 366.887 33.7031C368 33.7031 368.85 33.9473 369.436 34.4355C370.021 34.9238 370.314 35.7246 370.314 36.8379C370.314 37.2871 370.285 37.7559 370.227 38.2441C370.168 38.7324 370.1 39.2402 370.021 39.7676C369.943 40.2754 369.875 40.7832 369.816 41.291C369.758 41.7988 369.729 42.2969 369.729 42.7852C369.729 43.4883 369.826 44.0742 370.021 44.543C370.217 44.9922 370.461 45.3535 370.754 45.627C371.047 45.9004 371.359 46.0957 371.691 46.2129C372.023 46.3105 372.326 46.3594 372.6 46.3594C373.439 46.3594 374.23 46.0859 374.973 45.5391C375.715 44.9922 376.398 44.3379 377.023 43.5762C377.648 42.7949 378.205 41.9746 378.693 41.1152C379.201 40.2559 379.621 39.5039 379.953 38.8594C380.051 38.6836 380.188 38.5469 380.363 38.4492C380.539 38.3516 380.725 38.3027 380.92 38.3027C381.271 38.3027 381.545 38.4199 381.74 38.6543C381.936 38.8691 382.033 39.1133 382.033 39.3867C382.033 39.582 381.994 39.7578 381.916 39.9141C381.467 40.7148 380.939 41.623 380.334 42.6387C379.748 43.6348 379.074 44.5723 378.312 45.4512C377.551 46.3301 376.691 47.0723 375.734 47.6777C374.797 48.2832 373.762 48.5859 372.629 48.5859C371.926 48.5859 371.262 48.4492 370.637 48.1758C370.012 47.9219 369.465 47.5508 368.996 47.0625C368.547 46.5547 368.186 45.9395 367.912 45.2168C367.639 44.4746 367.502 43.6445 367.502 42.7266C367.502 41.75 367.6 40.7832 367.795 39.8262C367.99 38.8496 368.088 37.9219 368.088 37.043C368.088 36.6719 368 36.3984 367.824 36.2227C367.668 36.0273 367.307 35.9297 366.74 35.9297C366.467 35.9297 366.164 35.9297 365.832 35.9297C365.52 35.9297 365.178 35.9395 364.807 35.959ZM362.844 33.791C362.844 33.6543 362.834 33.4785 362.814 33.2637C362.814 33.0293 362.795 32.8047 362.756 32.5898C362.736 32.375 362.697 32.1895 362.639 32.0332C362.6 31.877 362.551 31.7988 362.492 31.7988C362.434 31.7988 362.355 31.877 362.258 32.0332C362.18 32.1699 362.092 32.3457 361.994 32.5605C361.896 32.7559 361.809 32.9707 361.73 33.2051C361.652 33.4395 361.594 33.6348 361.555 33.791H362.844Z" fill="#07452B"/>
</svg>
